<?xml version="1.0" encoding="UTF-8" standalone="no"?>
<svg width="823px" height="742px" viewBox="0 0 823 742" version="1.1" xmlns="http://www.w3.org/2000/svg" xmlns:xlink="http://www.w3.org/1999/xlink" xmlns:sketch="http://www.bohemiancoding.com/sketch/ns">
    <!-- Generator: Sketch 3.2.2 (9983) - http://www.bohemiancoding.com/sketch -->
    <title>Merchants Rely on us</title>
    <desc>Created with Sketch.</desc>
    <defs></defs>
    <g id="Page-1" stroke="none" stroke-width="1" fill="none" fill-rule="evenodd" sketch:type="MSPage">
        <g id="Merchants-Rely-on-us" sketch:type="MSLayerGroup" transform="translate(0.000000, -3.000000)">
            <g id="Twitter" transform="translate(78.000000, 401.000000)" sketch:type="MSShapeGroup">
                <path d="M0,30 C0,13.4314567 13.4508663,0 30.0433526,0 C46.6358389,0 60.0867052,13.4314567 60.0867052,30 C60.0867052,46.5685433 46.6358389,60 30.0433526,60 C13.4508663,60 0,46.5685433 0,30 Z" stroke="#4099FF" fill="#FFFFFF"></path>
                <path d="M29.2997675,23.8879776 L29.3627206,24.9260453 L28.3135016,24.798935 C24.4943445,24.3116787 21.1578281,22.6592444 18.3249368,19.8840023 L16.9399677,18.5069737 L16.5832333,19.5238563 C15.8277956,21.7906572 16.3104363,24.1845684 17.8842648,25.7946325 C18.72364,26.6844048 18.5347806,26.8115152 17.0868584,26.2818888 C16.5832333,26.1124083 16.1425613,25.985298 16.1005925,26.0488532 C15.9537019,26.1971486 16.457327,28.1249885 16.8560302,28.8876505 C17.4016241,29.9469033 18.5137962,30.9849709 19.7308902,31.5993375 L20.7591248,32.0865938 L19.5420308,32.1077788 C18.3669055,32.1077788 18.3249368,32.1289639 18.4508431,32.57385 C18.8705307,33.9508786 20.5282967,35.4126474 22.3749221,36.048199 L23.6759536,36.4930852 L22.5427971,37.1710069 C20.8640467,38.1455194 18.891515,38.6963309 16.9189833,38.738701 C15.9746862,38.759886 15.1982642,38.8446262 15.1982642,38.9081814 C15.1982642,39.1200319 17.7583585,40.306395 19.2482495,40.7724662 C23.7179224,42.1494948 29.0269705,41.5563132 33.0140027,39.2047722 C35.846894,37.5311528 38.6797853,34.2050993 40.0018012,30.9849709 C40.7152701,29.2689815 41.428739,26.1335934 41.428739,24.6294545 C41.428739,23.654942 41.4916922,23.5278317 42.6668174,22.3626537 C43.359302,21.6847319 44.0098178,20.943255 44.135724,20.7314044 C44.3455678,20.3288884 44.3245835,20.3288884 43.2543801,20.6890343 C41.4707078,21.324586 41.2188952,21.2398458 42.1002392,20.2865183 C42.750755,19.6085965 43.527177,18.3798634 43.527177,18.0197174 C43.527177,17.9561623 43.2124113,18.0620876 42.8556769,18.252753 C42.477958,18.4646036 41.6385828,18.7823794 41.0090514,18.9730449 L39.8758949,19.3331908 L38.8476603,18.634084 C38.281082,18.252753 37.4836756,17.829052 37.063988,17.7019416 C35.9937846,17.4053509 34.357003,17.447721 33.3917215,17.7866818 C30.768674,18.7400093 29.110908,21.1974757 29.2997675,23.8879776 Z" id="Path" fill="#4099FF"></path>
            </g>
            <g id="Facebook" transform="translate(374.000000, 38.000000)" sketch:type="MSShapeGroup">
                <path d="M0.11416185,30 C0.11416185,13.4314567 13.5650282,0 30.1575145,0 C46.7500007,0 60.2008671,13.4314567 60.2008671,30 C60.2008671,46.5685433 46.7500007,60 30.1575145,60 C13.5650282,60 0.11416185,46.5685433 0.11416185,30 Z" stroke="#3B5998" fill="#FFFFFF"></path>
                <path d="M32.6697148,46.3196729 L32.6697148,29.9980891 L37.1751858,29.9980891 L37.772258,24.3735809 L32.6697148,24.3735809 L32.6773696,21.5584604 C32.6773696,20.091502 32.8167502,19.3054722 34.9237261,19.3054722 L37.7403631,19.3054722 L37.7403631,13.6803271 L33.2342542,13.6803271 C27.8216928,13.6803271 25.9166115,16.4088187 25.9166115,20.9972835 L25.9166115,24.3742179 L22.5427709,24.3742179 L22.5427709,29.998726 L25.9166115,29.998726 L25.9166115,46.3196729 L32.6697148,46.3196729 Z" id="Path" fill="#3B5998"></path>
            </g>
            <path d="M403.5,349.5 L403.5,511.5" id="Line" stroke="#8EAF52" stroke-linecap="round" stroke-linejoin="round" stroke-dasharray="2,2,2,2" sketch:type="MSShapeGroup"></path>
            <g id="Instagram" transform="translate(77.000000, 154.000000)" sketch:type="MSShapeGroup">
                <path d="M0.799132948,30 C0.799132948,13.4314567 14.2499993,0 30.8424855,0 C47.4349718,0 60.8858382,13.4314567 60.8858382,30 C60.8858382,46.5685433 47.4349718,60 30.8424855,60 C14.2499993,60 0.799132948,46.5685433 0.799132948,30 Z" stroke="#517FA4" fill="#FFFFFF"></path>
                <path d="M43.5407051,45.1717917 C44.7883444,44.9073777 45.8078315,43.8680169 46.0516883,42.6147727 C46.0778625,42.4792986 46.097057,42.3416464 46.1193051,42.2057367 L46.1193051,17.7942633 C46.0979294,17.6605316 46.0796075,17.5263643 46.0534332,17.3930683 C45.7860196,16.0256947 44.6566007,14.9645536 43.2698017,14.7750641 C43.2122183,14.7676588 43.1559437,14.7550261 43.0992328,14.7450071 L18.5857383,14.7450071 C18.4378538,14.7715792 18.2890968,14.7916172 18.1433935,14.8247234 C16.7897485,15.1326983 15.7881472,16.2212827 15.5953302,17.5908343 C15.5874779,17.647899 15.5756995,17.704528 15.565666,17.7615927 L15.565666,42.2397141 C15.5935852,42.3947906 15.6158333,42.5511739 15.6507323,42.7053791 C15.9499913,44.0270139 17.0798464,45.0515639 18.4238942,45.2240647 C18.4888936,45.2319056 18.5543292,45.2445383 18.6193286,45.2549929 L43.0656425,45.2549929 C43.224433,45.2279852 43.3836596,45.2057692 43.5407051,45.1717917 Z M18.8710376,27.1981692 C18.8710376,31.7132463 18.8706014,36.2283235 18.8714739,40.7434006 C18.8714739,41.3928922 19.4346565,41.9513416 20.0850866,41.9513416 C27.2550864,41.9517772 34.4246499,41.9517772 41.5946496,41.9513416 C42.2511871,41.9513416 42.811316,41.3937634 42.811316,40.7394801 C42.8117523,36.2296303 42.811316,31.7202161 42.811316,27.2108018 L42.811316,27.1171461 L39.894632,27.1171461 C40.3064402,28.4313755 40.4329491,29.7682565 40.2715412,31.1308384 C40.1092609,32.4938559 39.6695335,33.7623465 38.9532315,34.9336964 C38.2364932,36.1063532 37.3073073,37.0777591 36.1695999,37.8509633 C33.2206343,39.8565027 29.3381205,40.0329239 26.2089888,38.279166 C24.6271916,37.3935749 23.3852234,36.1586262 22.519292,34.5673501 C21.2275927,32.1928508 21.0212523,29.7007373 21.7789969,27.1149681 C20.8114221,27.1158393 19.8477734,27.1158393 18.8710376,27.1158393 L18.8710376,27.1981692 Z M24.6516209,29.9063443 C24.6027623,33.3655076 27.3759242,36.10766 30.7004902,36.1790998 C34.1598537,36.2531531 36.9578811,33.4931407 37.0307328,30.1363453 C37.1053294,26.6745684 34.3090469,23.8152373 30.8427037,23.8174154 C27.4540107,23.8152373 24.6991708,26.5377875 24.6516209,29.9063443 Z M41.6369646,22.569834 C42.2839049,22.5537165 42.8108798,22.0000587 42.8108798,21.3531808 C42.811316,20.3900515 42.811316,19.4264865 42.8108798,18.4633572 C42.8108798,17.7724829 42.2634017,17.2227456 41.5724015,17.2223099 C40.6104978,17.2218743 39.6485941,17.2214387 38.6862541,17.2223099 C37.9969989,17.2231812 37.4477758,17.7742253 37.4473396,18.4650996 C37.4469034,19.4199524 37.4442859,20.3748052 37.4508295,21.3300936 C37.451702,21.4725374 37.4787487,21.6206441 37.5241174,21.7556826 C37.6968674,22.2640372 38.1632053,22.5759325 38.7342402,22.5785462 C39.198397,22.5794174 39.6625537,22.5781106 40.1271466,22.5781106 C40.6296922,22.5724477 41.1339828,22.582031 41.6369646,22.569834 Z" id="Path" fill="#517FA4"></path>
            </g>
            <g id="Pinterest" transform="translate(0.000000, 273.000000)" sketch:type="MSShapeGroup">
                <path d="M0.913294798,30 C0.913294798,13.4314567 14.3641611,0 30.9566474,0 C47.5491337,0 61,13.4314567 61,30 C61,46.5685433 47.5491337,60 30.9566474,60 C14.3641611,60 0.913294798,46.5685433 0.913294798,30 Z" stroke="#CB2027" fill="#FFFFFF"></path>
                <path d="M18.173147,25.6564894 C18.173147,28.9590618 19.4253079,31.8971698 22.1109506,32.9920559 C22.5513319,33.1718356 22.9457957,32.9982405 23.0735105,32.5113638 C23.1623556,32.1744101 23.3725085,31.3243485 23.4662657,30.9703339 C23.5950484,30.4887888 23.5450731,30.3198854 23.1896926,29.9001862 C22.4152878,28.9880654 21.9204461,27.8072348 21.9204461,26.1346224 C21.9204461,21.2820631 25.5562617,16.93792 31.3880039,16.93792 C36.5519128,16.93792 39.3889765,20.08865 39.3889765,24.2965188 C39.3889765,29.8330087 36.9352709,34.5057882 33.2926211,34.5057882 C31.2810053,34.5057882 29.7751233,32.8444787 30.2577915,30.8069754 C30.8357119,28.3745112 31.9552458,25.7492583 31.9552458,23.9934738 C31.9552458,22.4217342 31.1103629,21.1108139 29.3618654,21.1108139 C27.3053999,21.1108139 25.653436,23.2351148 25.653436,26.0808804 C25.653436,27.8933925 26.2668091,29.1192214 26.2668091,29.1192214 C26.2668091,29.1192214 24.1622903,38.0231153 23.793455,39.5824856 C23.0587742,42.6880041 23.6830393,46.4949407 23.7357911,46.8794518 C23.7667587,47.1072154 24.0599903,47.1613839 24.1928309,46.9892816 C24.382481,46.7421112 26.8317017,43.7227504 27.6644111,40.7057356 C27.8999788,39.8514088 29.0169499,35.427719 29.0169499,35.427719 C29.6849968,36.7002523 31.6376672,37.8211564 33.7142083,37.8211564 C39.8957781,37.8211564 44.0896521,32.1938169 44.0896521,24.6614098 C44.0896521,18.9658266 39.2584853,13.6613656 31.9157354,13.6613656 C22.7796382,13.6613656 18.173147,20.2021053 18.173147,25.6564894 Z" id="Path" fill="#CB2027"></path>
            </g>
            <g id="desktop" transform="translate(658.000000, 123.000000)" stroke="#4990E2" sketch:type="MSShapeGroup">
                <rect id="Rectangle-5" x="0" y="0" width="151" height="102" rx="3"></rect>
                <ellipse id="Oval-6" cx="7.5" cy="7.5" rx="2.5" ry="2.5"></ellipse>
                <ellipse id="Oval-7" cx="17.5" cy="7.5" rx="2.5" ry="2.5"></ellipse>
                <ellipse id="Oval-8" cx="27.5" cy="7.5" rx="2.5" ry="2.5"></ellipse>
                <path d="M76,102 L76,132" id="Line-3" stroke-linecap="square"></path>
                <path d="M56,132 L96,132" id="Line-4" stroke-linecap="square"></path>
            </g>
            <g id="mobile" transform="translate(692.000000, 398.000000)" stroke="#4990E2" sketch:type="MSShapeGroup">
                <circle id="Oval-1" cx="21.5" cy="58.5" r="2.5"></circle>
                <rect id="Rectangle-1" x="0" y="0" width="42" height="67" rx="3"></rect>
            </g>
            <g id="tablet" transform="translate(408.000000, 573.500000) rotate(-90.000000) translate(-408.000000, -573.500000) translate(349.000000, 533.000000)" stroke="#4990E2" sketch:type="MSShapeGroup">
                <circle id="Oval-2" cx="8.5" cy="40.5" r="2.5"></circle>
                <rect id="Rectangle-3" x="0" y="0" width="118" height="81" rx="3"></rect>
            </g>
            <g id="Paths" transform="translate(61.000000, 98.000000)" sketch:type="MSShapeGroup">
                <path id="Path-18" stroke="#979797" d=""></path>
                <path d="M343.5,0.5 L343.5,162.5" id="Line" stroke="#8EAF52" stroke-linecap="round" stroke-linejoin="bevel" stroke-dasharray="2,2,2,2"></path>
                <path d="M386.5,187.5 L597.5,76.5" id="Line" stroke="#8EAF52" stroke-linecap="round" stroke-linejoin="round" stroke-dasharray="2,2,2,2"></path>
                <path id="Path-50" stroke="#979797" d=""></path>
                <path d="M384.5,224.5 L630.5,327.5" id="Line" stroke="#8EAF52" stroke-linecap="round" stroke-linejoin="round" stroke-dasharray="2,2,2,2"></path>
                <path d="M295.5,210.5 L145.470003,210.5" id="Line" stroke="#8EAF52" stroke-linecap="round" stroke-linejoin="round" stroke-dasharray="2,2,2,2"></path>
                <path d="M146.5,210.5 L0.5,210.5" id="Line" stroke="#8EAF52" stroke-linecap="round" stroke-linejoin="round" stroke-dasharray="2,2,2,2"></path>
                <path d="M145.5,211.5 L145.5,336.5" id="Line" stroke="#8EAF52" stroke-linecap="round" stroke-linejoin="round" stroke-dasharray="2,2,2,2"></path>
                <path d="M145.5,87.5 L145.5,212.5" id="Line-2" stroke="#8EAF52" stroke-linecap="round" stroke-linejoin="round" stroke-dasharray="2,2,2,2"></path>
                <path d="M144.5,337.5 L76.5,337.5" id="Line" stroke="#8EAF52" stroke-linecap="round" stroke-linejoin="round" stroke-dasharray="2,2,2,2"></path>
                <path d="M144.5,87.5 L76.5,87.5" id="Line-5" stroke="#8EAF52" stroke-linecap="round" stroke-linejoin="round" stroke-dasharray="2,2,2,2"></path>
            </g>
            <g id="Oval-1-+-L-+-D-2" transform="translate(358.000000, 256.000000)">
                <circle id="Oval-1" stroke="#AEE239" stroke-width="2" fill="#FFFFFF" sketch:type="MSShapeGroup" cx="46" cy="46" r="46"></circle>
                <text id="L" sketch:type="MSTextLayer" font-family="Lato" font-size="44.6315789" font-weight="bold" fill="#F38630">
                    <tspan x="23" y="63">L</tspan>
                </text>
                <text id="D" sketch:type="MSTextLayer" font-family="Lato" font-size="44.6315789" font-weight="bold" fill="#F38630">
                    <tspan x="42" y="63">D</tspan>
                </text>
            </g>
            <text id="Sell-through-social-" sketch:type="MSTextLayer" font-family="Avenir Next" font-size="16.8571434" font-weight="normal" fill="#85B62E">
                <tspan x="13" y="137">Sell through social media</tspan>
            </text>
            <text id="Point-Of-Sale" sketch:type="MSTextLayer" font-family="Avenir Next" font-size="16.8571434" font-weight="normal" fill="#85B62E">
                <tspan x="362" y="667">Point Of Sale</tspan>
            </text>
            <text id="Customer-Mobile-App" sketch:type="MSTextLayer" font-family="Avenir Next" font-size="16.8571434" font-weight="normal" fill="#85B62E">
                <tspan x="629" y="503">Customer Mobile App</tspan>
            </text>
            <text id="Customer-Online-Shop" sketch:type="MSTextLayer" font-family="Avenir Next" font-size="16.8571434" font-weight="normal" fill="#85B62E">
                <tspan x="647" y="103">Customer Online Shop</tspan>
            </text>
            <text id="Facebook-Shop-Applic" sketch:type="MSTextLayer" font-family="Avenir Next" font-size="16.8571434" font-weight="normal" fill="#85B62E">
                <tspan x="311" y="17">Facebook Shop Application</tspan>
            </text>
            <g id="Android" transform="translate(377.000000, 684.000000)" sketch:type="MSShapeGroup">
                <path d="M0.799132948,30 C0.799132948,13.4314567 14.2499993,0 30.8424855,0 C47.4349718,0 60.8858382,13.4314567 60.8858382,30 C60.8858382,46.5685433 47.4349718,60 30.8424855,60 C14.2499993,60 0.799132948,46.5685433 0.799132948,30 Z" stroke="#A4C639" fill="#FFFFFF"></path>
                <path d="M21.2969852,23.4371561 C21.2969852,20.2103361 23.1098417,17.3814452 25.8306523,15.8009181 L24.322498,13.0308444 C24.1399322,12.695526 24.2589049,12.2730432 24.588259,12.0871713 C24.9176132,11.9012995 25.3325812,12.0224266 25.515147,12.357745 L27.0613574,15.1977176 C28.2207892,14.7271559 29.4992233,14.4664135 30.8424604,14.4664135 C32.1856943,14.4664135 33.4641267,14.7271563 34.6235461,15.1977106 L36.1697737,12.357745 C36.3523395,12.0224266 36.7673075,11.9012995 37.0966113,12.0871713 C37.4260158,12.2730432 37.5449885,12.695526 37.3624227,13.0308444 L35.8542508,15.8009128 C37.1463923,16.5514953 38.23379,17.5836935 39.0194194,18.8063111 C39.0300627,18.8228751 39.0405098,18.839252 39.0507864,18.8554782 C39.9001127,20.1964847 40.3879355,21.7632818 40.3879355,23.4371561 C40.3879355,23.4604118 40.3878414,23.4836468 40.3876535,23.5068583 C40.3878413,23.5192058 40.3879355,23.5315765 40.3879355,23.5439696 L40.3879355,23.6262601 L21.2969852,23.6262601 L21.2969852,23.5439183 C21.2969852,23.5315315 21.2970794,23.5191671 21.297267,23.5068258 C21.2970793,23.4836251 21.2969852,23.4604009 21.2969852,23.4371561 Z M40.3879355,38.2816657 C40.3879355,39.5792289 39.354723,40.631152 38.0802393,40.631152 L36.9263408,40.631152 L36.9263408,45.4368867 C36.9263408,46.8524476 35.7992503,48 34.4088678,48 C33.0184854,48 31.8913948,46.8524476 31.8913948,45.4368867 L31.8913948,40.631152 L29.7934755,40.631152 L29.7934755,45.4368867 C29.7934755,46.8524476 28.6663345,48 27.2760025,48 C25.8856704,48 24.7585295,46.8524476 24.7585295,45.4368867 L24.7585295,40.631152 L23.6046814,40.631152 C22.3301978,40.631152 21.2969852,39.5792289 21.2969852,38.2816657 L21.2969852,23.9956439 L40.3879355,23.9956439 L40.3879355,38.2816657 Z M20.8774316,26.0002181 L20.8774316,35.0777228 C20.8774316,36.4932836 19.750341,37.6407847 18.3599586,37.6407847 C16.9695761,37.6407847 15.8424855,36.4932836 15.8424855,35.0777228 L15.8424855,26.0002181 C15.8424855,24.5847085 16.9695761,23.4371561 18.3599586,23.4371561 C19.7502906,23.4371561 20.8774316,24.5847085 20.8774316,26.0002181 Z M26.8563984,19.0585727 C26.8563984,18.8226635 26.6685579,18.6314213 26.4368448,18.6314213 C26.2051317,18.6314213 26.0172912,18.8226635 26.0172912,19.0585727 C26.0172912,19.2944818 26.2051317,19.485724 26.4368448,19.485724 C26.6685579,19.485724 26.8563984,19.2944818 26.8563984,19.0585727 Z M45.8424855,26.0002181 L45.8424855,35.0777228 C45.8424855,36.4932836 44.7153446,37.6407847 43.3249622,37.6407847 C41.9346301,37.6407847 40.8074892,36.4932836 40.8074892,35.0777228 L40.8074892,26.0002181 C40.8074892,24.5847085 41.9346301,23.4371561 43.3249622,23.4371561 C44.7153446,23.4371561 45.8424855,24.5847085 45.8424855,26.0002181 Z M35.6676295,19.0585727 C35.6676295,18.8226635 35.479789,18.6314213 35.2480759,18.6314213 C35.0163628,18.6314213 34.8285223,18.8226635 34.8285223,19.0585727 C34.8285223,19.2944818 35.0163628,19.485724 35.2480759,19.485724 C35.479789,19.485724 35.6676295,19.2944818 35.6676295,19.0585727 Z" id="Oval" fill="#A4C639"></path>
            </g>
            <g id="Android" transform="translate(685.000000, 513.000000)" sketch:type="MSShapeGroup">
                <path d="M0.799132948,30.5 C0.799132948,13.6553143 14.2499993,0 30.8424855,0 C47.4349718,0 60.8858382,13.6553143 60.8858382,30.5 C60.8858382,47.3446857 47.4349718,61 30.8424855,61 C14.2499993,61 0.799132948,47.3446857 0.799132948,30.5 Z" stroke="#A4C639" fill="#FFFFFF"></path>
                <path d="M21.2969852,23.8277754 C21.2969852,20.5471751 23.1098417,17.6711359 25.8306523,16.0642668 L24.322498,13.2480251 C24.1399322,12.9071181 24.2589049,12.4775939 24.588259,12.2886242 C24.9176132,12.0996544 25.3325812,12.2228003 25.515147,12.5637074 L27.0613574,15.4510129 C28.2207892,14.9726085 29.4992233,14.7075204 30.8424604,14.7075204 C32.1856943,14.7075204 33.4641267,14.9726089 34.6235461,15.4510058 L36.1697737,12.5637074 C36.3523395,12.2228003 36.7673075,12.0996544 37.0966113,12.2886242 C37.4260158,12.4775939 37.5449885,12.9071181 37.3624227,13.2480251 L35.8542508,16.0642614 C37.1463923,16.8273535 38.23379,17.876755 39.0194194,19.1197496 C39.0300627,19.1365897 39.0405098,19.1532395 39.0507864,19.1697362 C39.9001127,20.5330927 40.3879355,22.1260032 40.3879355,23.8277754 C40.3879355,23.8514186 40.3878414,23.8750409 40.3876535,23.8986393 C40.3878413,23.9111926 40.3879355,23.9237694 40.3879355,23.9363691 L40.3879355,24.0200311 L21.2969852,24.0200311 L21.2969852,23.9363169 C21.2969852,23.9237237 21.2970794,23.9111532 21.297267,23.8986062 C21.2970793,23.8750189 21.2969852,23.8514076 21.2969852,23.8277754 Z M40.3879355,38.9196934 C40.3879355,40.2388827 39.354723,41.3083378 38.0802393,41.3083378 L36.9263408,41.3083378 L36.9263408,46.1941682 C36.9263408,47.6333217 35.7992503,48.8 34.4088678,48.8 C33.0184854,48.8 31.8913948,47.6333217 31.8913948,46.1941682 L31.8913948,41.3083378 L29.7934755,41.3083378 L29.7934755,46.1941682 C29.7934755,47.6333217 28.6663345,48.8 27.2760025,48.8 C25.8856704,48.8 24.7585295,47.6333217 24.7585295,46.1941682 L24.7585295,41.3083378 L23.6046814,41.3083378 C22.3301978,41.3083378 21.2969852,40.2388827 21.2969852,38.9196934 L21.2969852,24.3955713 L40.3879355,24.3955713 L40.3879355,38.9196934 Z M20.8774316,26.433555 L20.8774316,35.6623515 C20.8774316,37.101505 19.750341,38.2681311 18.3599586,38.2681311 C16.9695761,38.2681311 15.8424855,37.101505 15.8424855,35.6623515 L15.8424855,26.433555 C15.8424855,24.9944536 16.9695761,23.8277754 18.3599586,23.8277754 C19.7502906,23.8277754 20.8774316,24.9944536 20.8774316,26.433555 Z M26.8563984,19.3762155 C26.8563984,19.1363745 26.6685579,18.941945 26.4368448,18.941945 C26.2051317,18.941945 26.0172912,19.1363745 26.0172912,19.3762155 C26.0172912,19.6160565 26.2051317,19.8104861 26.4368448,19.8104861 C26.6685579,19.8104861 26.8563984,19.6160565 26.8563984,19.3762155 Z M45.8424855,26.433555 L45.8424855,35.6623515 C45.8424855,37.101505 44.7153446,38.2681311 43.3249622,38.2681311 C41.9346301,38.2681311 40.8074892,37.101505 40.8074892,35.6623515 L40.8074892,26.433555 C40.8074892,24.9944536 41.9346301,23.8277754 43.3249622,23.8277754 C44.7153446,23.8277754 45.8424855,24.9944536 45.8424855,26.433555 Z M35.6676295,19.3762155 C35.6676295,19.1363745 35.479789,18.941945 35.2480759,18.941945 C35.0163628,18.941945 34.8285223,19.1363745 34.8285223,19.3762155 C34.8285223,19.6160565 35.0163628,19.8104861 35.2480759,19.8104861 C35.479789,19.8104861 35.6676295,19.6160565 35.6676295,19.3762155 Z" id="Oval" fill="#A4C639"></path>
            </g>
        </g>
    </g>
</svg>